<svg width="14" height="16" viewBox="0 0 14 16" fill="none" xmlns="http://www.w3.org/2000/svg">
<path d="M7 16C8.10375 16 8.99906 15.1046 8.99906 14H5.00094C5.00094 15.1046 5.89625 16 7 16ZM13.7309 11.3215C13.1272 10.6728 11.9975 9.69685 11.9975 6.49998C11.9975 4.07186 10.295 2.12812 7.99937 1.65124V0.999997C7.99937 0.447811 7.55187 0 7 0C6.44813 0 6.00063 0.447811 6.00063 0.999997V1.65124C3.70501 2.12812 2.00252 4.07186 2.00252 6.49998C2.00252 9.69685 0.872831 10.6728 0.269083 11.3215C0.0815839 11.5231 -0.00154089 11.764 2.16058e-05 12C0.0034591 12.5125 0.405645 13 1.00314 13H12.9969C13.5944 13 13.9969 12.5125 14 12C14.0015 11.764 13.9184 11.5228 13.7309 11.3215Z" fill="#A6A6A6"/>
</svg>
