<svg width="31" height="31" viewBox="0 0 31 31" fill="none" xmlns="http://www.w3.org/2000/svg">
<path d="M15.5 0C6.9375 0 0 6.9375 0 15.5C0 24.0625 6.9375 31 15.5 31C24.0625 31 31 24.0625 31 15.5C31 6.9375 24.0625 0 15.5 0ZM15.5 6C18.5375 6 21 8.4625 21 11.5C21 14.5375 18.5375 17 15.5 17C12.4625 17 10 14.5375 10 11.5C10 8.4625 12.4625 6 15.5 6ZM15.5 27.5C11.8313 27.5 8.54375 25.8375 6.34375 23.2375C7.51875 21.025 9.81875 19.5 12.5 19.5C12.65 19.5 12.8 19.525 12.9438 19.5688C13.7563 19.8313 14.6062 20 15.5 20C16.3937 20 17.25 19.8313 18.0562 19.5688C18.2 19.525 18.35 19.5 18.5 19.5C21.1812 19.5 23.4813 21.025 24.6562 23.2375C22.4562 25.8375 19.1688 27.5 15.5 27.5Z" fill="#CBB68D"/>
</svg>
