<svg width="23" height="23" viewBox="0 0 23 23" fill="none" xmlns="http://www.w3.org/2000/svg">
<g clip-path="url(#clip0_8_49)">
<path d="M8.64995 19.1357C4.58754 17.2413 2.82727 12.3978 4.72032 8.33838C6.61336 4.27898 11.4583 2.5157 15.5177 4.40874C15.7644 4.52381 16.0056 4.65092 16.2411 4.79006C16.4479 4.91216 16.5744 5.13599 16.5734 5.37368C16.5725 5.61138 16.4464 5.83467 16.2418 5.95909C15.0754 6.65344 14.154 7.67087 13.58 8.90163C12.1066 12.0613 13.2511 15.7897 16.2498 17.5691C16.4566 17.6912 16.5831 17.915 16.5821 18.1527C16.5842 18.3918 16.4551 18.6137 16.2505 18.7381C13.9265 20.1236 11.0874 20.2724 8.64995 19.1357V19.1357ZM14.5606 5.47914C11.2646 4.18023 7.47105 5.66079 5.95409 8.91373C4.37819 12.2931 5.84598 16.3261 9.2253 17.902C10.9225 18.6934 12.8517 18.7358 14.5668 18.0592C13.3407 17.0588 12.4321 15.7155 11.9505 14.1793C11.348 12.2424 11.4844 10.1665 12.3404 8.33089C12.8641 7.21588 13.6204 6.24604 14.5606 5.47914Z" fill="#222222"/>
</g>
<defs>
<clipPath id="clip0_8_49">
<rect width="17" height="17" fill="white" transform="translate(7.38892 0.204041) rotate(25.0013)"/>
</clipPath>
</defs>
</svg>
