<svg width="20" height="20" viewBox="0 0 20 20" fill="none" xmlns="http://www.w3.org/2000/svg">
<path d="M10 4.25531C6.83238 4.25531 4.25531 6.83238 4.25531 10C4.25531 13.1676 6.83238 15.7447 10 15.7447C13.1676 15.7447 15.7447 13.1676 15.7447 10C15.7447 6.83238 13.1676 4.25531 10 4.25531ZM10 14.4681C7.53629 14.4681 5.53191 12.4637 5.53191 10C5.53191 7.53629 7.53629 5.53191 10 5.53191C12.4637 5.53191 14.4681 7.53629 14.4681 10C14.4681 12.4637 12.4637 14.4681 10 14.4681Z" fill="white"/>
<path d="M9.99998 3.26984C10.3525 3.26984 10.6383 2.98406 10.6383 2.63156V0.638281C10.6383 0.285781 10.3525 0 9.99998 0C9.64748 0 9.36169 0.285781 9.36169 0.638281V2.63152C9.36169 2.98402 9.64748 3.26984 9.99998 3.26984Z" fill="white"/>
<path d="M9.99998 16.7302C9.64748 16.7302 9.36169 17.0159 9.36169 17.3684V19.3617C9.36169 19.7142 9.64748 20 9.99998 20C10.3525 20 10.6383 19.7142 10.6383 19.3617V17.3684C10.6383 17.016 10.3525 16.7302 9.99998 16.7302Z" fill="white"/>
<path d="M4.33834 5.24106C4.58756 5.49032 4.99174 5.49032 5.24104 5.24106C5.49029 4.99184 5.49029 4.58766 5.24104 4.33836L3.83158 2.92895C3.58236 2.67969 3.17818 2.67969 2.92889 2.92895C2.67963 3.17817 2.67963 3.58235 2.92889 3.83164L4.33834 5.24106Z" fill="white"/>
<path d="M15.6617 14.759C15.4124 14.5097 15.0083 14.5097 14.759 14.759C14.5097 15.0082 14.5097 15.4123 14.759 15.6616L16.1684 17.0711C16.4176 17.3204 16.8218 17.3204 17.0711 17.0711C17.3204 16.8219 17.3204 16.4177 17.0711 16.1684L15.6617 14.759Z" fill="white"/>
<path d="M3.26984 10C3.26984 9.64751 2.98406 9.36172 2.63156 9.36172H0.638281C0.285781 9.36172 0 9.64751 0 10C0 10.3525 0.285781 10.6383 0.638281 10.6383H2.63152C2.98402 10.6383 3.26984 10.3525 3.26984 10Z" fill="white"/>
<path d="M19.3617 9.36172H17.3685C17.016 9.36172 16.7302 9.64751 16.7302 10C16.7302 10.3525 17.016 10.6383 17.3685 10.6383H19.3617C19.7142 10.6383 20 10.3525 20 10C20 9.64751 19.7142 9.36172 19.3617 9.36172Z" fill="white"/>
<path d="M4.33836 14.7589L2.92895 16.1684C2.67969 16.4177 2.67969 16.8218 2.92895 17.0711C3.17817 17.3204 3.58235 17.3204 3.83164 17.0711L5.24106 15.6616C5.49032 15.4124 5.49032 15.0082 5.24106 14.7589C4.9918 14.5096 4.58762 14.5096 4.33836 14.7589Z" fill="white"/>
<path d="M15.6617 5.24107L17.0711 3.83161C17.3204 3.58235 17.3204 3.17821 17.0711 2.92892C16.8219 2.67966 16.4177 2.67966 16.1684 2.92892L14.759 4.33837C14.5097 4.58763 14.5097 4.99177 14.759 5.24107C15.0082 5.49032 15.4124 5.49036 15.6617 5.24107Z" fill="white"/>
</svg>
